<svg width="46" height="51" viewBox="0 0 46 51" fill="none" xmlns="http://www.w3.org/2000/svg">
<path d="M19 14.2L7.40001 25.8C6.66668 26.5334 5.73335 26.9 4.60001 26.9C3.46668 26.9 2.53335 26.5334 1.80001 25.8C1.06668 25.0667 0.700012 24.1334 0.700012 23C0.700012 21.8667 1.06668 20.9334 1.80001 20.2L20.2 1.80002C21 1.00002 21.9333 0.600021 23 0.600021C24.0667 0.600021 25 1.00002 25.8 1.80002L44.2 20.2C44.9333 20.9334 45.3 21.8667 45.3 23C45.3 24.1334 44.9333 25.0667 44.2 25.8C43.4667 26.5334 42.5333 26.9 41.4 26.9C40.2667 26.9 39.3333 26.5334 38.6 25.8L27 14.2V47C27 48.1334 26.6167 49.0834 25.85 49.85C25.0833 50.6167 24.1333 51 23 51C21.8667 51 20.9167 50.6167 20.15 49.85C19.3833 49.0834 19 48.1334 19 47V14.2Z" fill="white"/>
</svg>
