<svg width="46" height="51" viewBox="0 0 46 51" fill="none" xmlns="http://www.w3.org/2000/svg">
<path d="M27 36.8L38.6 25.2C39.3333 24.4667 40.2667 24.1 41.4 24.1C42.5333 24.1 43.4667 24.4667 44.2 25.2C44.9333 25.9333 45.3 26.8667 45.3 28C45.3 29.1333 44.9333 30.0667 44.2 30.8L25.8 49.2C25 50 24.0667 50.4 23 50.4C21.9333 50.4 21 50 20.2 49.2L1.79999 30.8C1.06666 30.0667 0.699987 29.1333 0.699987 28C0.699988 26.8667 1.06666 25.9333 1.79999 25.2C2.53332 24.4667 3.46666 24.1 4.59999 24.1C5.73332 24.1 6.66665 24.4667 7.39999 25.2L19 36.8L19 4.00001C19 2.86667 19.3833 1.91667 20.15 1.15001C20.9167 0.383341 21.8667 5.58079e-06 23 5.67987e-06C24.1333 5.77895e-06 25.0833 0.383341 25.85 1.15001C26.6167 1.91667 27 2.86667 27 4.00001L27 36.8Z" fill="white"/>
</svg>
