<?xml version="1.0" encoding="UTF-8"?>
<!DOCTYPE svg PUBLIC "-//W3C//DTD SVG 1.1//EN" "http://www.w3.org/Graphics/SVG/1.1/DTD/svg11.dtd">
<svg xmlns="http://www.w3.org/2000/svg" version="1.1" width="512px" height="512px" style="shape-rendering:geometricPrecision; text-rendering:geometricPrecision; image-rendering:optimizeQuality; fill-rule:evenodd; clip-rule:evenodd" xmlns:xlink="http://www.w3.org/1999/xlink">
<g><path style="opacity:0.976" fill="#fefffe" d="M 511.5,43.5 C 511.5,50.5 511.5,57.5 511.5,64.5C 508.967,73.567 504.8,81.9004 499,89.5C 488.319,100.348 477.486,111.014 466.5,121.5C 440.833,96.5 415.5,71.1667 390.5,45.5C 402.715,32.1172 415.715,19.6172 429.5,8C 458.256,-6.25012 482.756,-1.08345 503,23.5C 506.733,29.8882 509.566,36.5549 511.5,43.5 Z"/></g>
<g><path style="opacity:0.981" fill="#fefffe" d="M 367.5,67.5 C 393.416,91.9142 418.916,116.914 444,142.5C 444.667,143.167 444.667,143.833 444,144.5C 387.5,201 331,257.5 274.5,314C 247.161,320.468 219.661,326.301 192,331.5C 185.165,330.665 181.331,326.831 180.5,320C 185.699,292.334 191.533,264.834 198,237.5C 254.701,180.965 311.201,124.299 367.5,67.5 Z"/></g>
<g><path style="opacity:0.988" fill="#fefffe" d="M 378.5,511.5 C 268.167,511.5 157.833,511.5 47.5,511.5C 21.8871,503.554 5.88706,486.554 -0.5,460.5C -0.5,353.167 -0.5,245.833 -0.5,138.5C 6.25952,109.59 24.2595,92.0904 53.5,86C 115.5,85.3333 177.5,85.3333 239.5,86C 252.797,90.4148 257.964,99.5815 255,113.5C 252.833,121 248,125.833 240.5,128C 181.167,128.333 121.833,128.667 62.5,129C 52.2234,130.609 45.7234,136.443 43,146.5C 42.0089,249.543 42.3422,352.543 44,455.5C 47.0481,462.947 52.5481,467.447 60.5,469C 162.167,469.667 263.833,469.667 365.5,469C 376.02,466.148 381.853,459.315 383,448.5C 383.333,389.167 383.667,329.833 384,270.5C 389.471,258.682 398.637,254.182 411.5,257C 419.389,259.258 424.222,264.425 426,272.5C 426.667,334.167 426.667,395.833 426,457.5C 420.573,484.754 404.74,502.754 378.5,511.5 Z"/></g>
</svg>
